<?xml version="1.0" encoding="iso-8859-1"?>
<!-- Uploaded to: SVG Repo, www.svgrepo.com, Generator: SVG Repo Mixer Tools -->
<svg version="1.1" id="Layer_1" xmlns="http://www.w3.org/2000/svg" xmlns:xlink="http://www.w3.org/1999/xlink" 
	 viewBox="0 0 480 480" xml:space="preserve">
<path style="fill:#F74D19;" d="M383.2,258.4H74.4C33.6,258.4,0,224.8,0,184v-28c0-40.8,33.6-74.4,74.4-74.4v36
	C53.6,117.6,36,134.4,36,156v28c0,20.8,16.8,38.4,38.4,38.4h308.8L383.2,258.4L383.2,258.4z"/>
<path style="fill:#D12205;" d="M36,157.6V156c0-20.8,16.8-38.4,38.4-38.4v-36c-18.4,0-35.2,7.2-48,18.4v33.6
	C25.6,143.2,29.6,151.2,36,157.6z"/>
<path style="fill:#EFA818;" d="M49.6,384.8L96,406.4c0.8,0,1.6,0.8,2.4,0.8h127.2c2.4,0,4-0.8,5.6-3.2l12.8-21.6
	c0.8-1.6,0.8-4,0-6.4l-12.8-21.6c-0.8-1.6-3.2-3.2-5.6-3.2H99.2c-0.8,0-1.6,0-2.4,0.8l-46.4,21.6c-2.4,0.8-3.2,3.2-3.2,5.6
	S47.2,383.2,49.6,384.8z"/>
<path style="fill:#EDC51B;" d="M220,379.2H48c-0.8,0-1.6,0-1.6,0c0,2.4,1.6,4,3.2,4.8L96,405.6c0.8,0,1.6,0.8,2.4,0.8h127.2
	c2.4,0,4-0.8,5.6-3.2l9.6-16C235.2,382.4,228,379.2,220,379.2z"/>
<path style="fill:#D68E0F;" d="M213.6,401.6v-44c0-2.4-0.8-4.8-0.8-6.4h-42.4c-0.8,2.4-0.8,4-0.8,6.4v44c0,1.6,0,4,0.8,5.6h43.2
	C212.8,404.8,213.6,403.2,213.6,401.6z"/>
<path style="fill:#F74D19;" d="M96.8,221.6h308.8c40.8,0,74.4,33.6,74.4,74.4v28c0,40.8-33.6,74.4-74.4,74.4v-36
	c20.8,0,38.4-16.8,38.4-38.4v-28c0-20.8-16.8-38.4-38.4-38.4H96.8V221.6z"/>
<g>
	<path style="fill:#E2340C;" d="M383.2,221.6H74.4c-20.8,0-38.4-16.8-38.4-38.4v-28c0-0.8,0-1.6,0-2.4c0-0.8,0-1.6,0-2.4v-28
		C36,101.6,52.8,84,74.4,84v-3.2c-40,0-72.8,32-74.4,72c1.6,40,33.6,72,74.4,72"/>
	<path style="fill:#E2340C;" d="M96.8,258.4h308.8c20.8,0,38.4,16.8,38.4,38.4v28c0,0.8,0,1.6,0,2.4s0,1.6,0,2.4v28
		c0,20.8-16.8,38.4-38.4,38.4v3.2c40,0,72.8-32,74.4-72c-1.6-40-33.6-72-74.4-72"/>
</g>
<path style="fill:#D12205;" d="M444,322.4v1.6c0,20.8-16.8,38.4-38.4,38.4v36c18.4,0,35.2-7.2,48-18.4v-33.6
	C454.4,336.8,450.4,328.8,444,322.4z"/>
<path style="fill:#A3C0C4;" d="M183.2,363.2c0-18.4,15.2-33.6,33.6-33.6h168.8c18.4,0,33.6,15.2,33.6,33.6v31.2
	c0,18.4-15.2,33.6-33.6,33.6H216.8c-18.4,0-33.6-15.2-33.6-33.6L183.2,363.2L183.2,363.2z"/>
<path style="fill:#B6CCD1;" d="M385.6,428c16.8,0,31.2-12.8,32.8-29.6c-1.6-16.8-16-29.6-32.8-29.6H216.8
	c-16.8,0-31.2,12.8-32.8,29.6c1.6,16.8,16,29.6,32.8,29.6H385.6z"/>
<path style="fill:#C9DEE2;" d="M183.2,398.4c1.6,16.8,16,29.6,32.8,29.6h168.8c16.8,0,31.2-12.8,32.8-29.6"/>
<rect x="218.4" y="329.6" style="fill:#F74D19;" width="7.2" height="98.4"/>
<path style="fill:#EFA818;" d="M430.4,95.2L384,73.6c-0.8,0-1.6-0.8-2.4-0.8H254.4c-2.4,0-4,0.8-5.6,3.2L236,97.6
	c-0.8,1.6-0.8,4,0,6.4l12.8,21.6c0.8,1.6,3.2,3.2,5.6,3.2h127.2c0.8,0,1.6,0,2.4-0.8l46.4-21.6c2.4-0.8,3.2-3.2,3.2-5.6
	C433.6,98.4,432.8,96.8,430.4,95.2z"/>
<path style="fill:#EDC51B;" d="M260,100.8h172c0.8,0,1.6,0,1.6,0c0-2.4-1.6-4-3.2-4.8L384,73.6c-0.8,0-1.6-0.8-2.4-0.8H254.4
	c-2.4,0-4,0.8-5.6,3.2l-9.6,16C244.8,97.6,252,100.8,260,100.8z"/>
<path style="fill:#D68E0F;" d="M266.4,78.4v44c0,2.4,0.8,4.8,0.8,6.4h42.4c0.8-2.4,0.8-4,0.8-6.4v-44c0-1.6,0-4-0.8-5.6h-43.2
	C267.2,75.2,266.4,76.8,266.4,78.4z"/>
<path style="fill:#A3C0C4;" d="M296.8,116.8c0,18.4-15.2,33.6-33.6,33.6H94.4c-18.4,0-33.6-15.2-33.6-33.6V85.6
	C60.8,67.2,76,52,94.4,52h168.8c18.4,0,33.6,15.2,33.6,33.6L296.8,116.8L296.8,116.8z"/>
<path style="fill:#B6CCD1;" d="M94.4,52c-16.8,0-31.2,12.8-32.8,29.6c1.6,16.8,16,29.6,32.8,29.6h168.8c16.8,0,31.2-12.8,32.8-29.6
	C294.4,64.8,280,52,263.2,52H94.4z"/>
<path style="fill:#C9DEE2;" d="M296.8,81.6C295.2,64.8,280.8,52,264,52H94.4c-16.8,0-31.2,12.8-32.8,29.6"/>
<rect x="254.4" y="52" style="fill:#F74D19;" width="7.2" height="98.4"/>
</svg>