<?xml version="1.0" encoding="iso-8859-1"?>
<!-- Uploaded to: SVG Repo, www.svgrepo.com, Generator: SVG Repo Mixer Tools -->
<svg height="800px" width="800px" version="1.1" id="Layer_1" xmlns="http://www.w3.org/2000/svg" xmlns:xlink="http://www.w3.org/1999/xlink" 
	 viewBox="0 0 470.4 470.4" xml:space="preserve">
<g>
	<path style="fill:#3F4A4C;" d="M125.6,208c0,3.2-2.4,5.6-5.6,5.6H76.8c-3.2,0-5.6-2.4-5.6-5.6v-77.6c0-3.2,2.4-5.6,5.6-5.6H120
		c3.2,0,5.6,2.4,5.6,5.6V208z"/>
	<path style="fill:#3F4A4C;" d="M125.6,314.4c0,3.2-2.4,5.6-5.6,5.6H76.8c-3.2,0-5.6-2.4-5.6-5.6v-77.6c0-3.2,2.4-5.6,5.6-5.6H120
		c3.2,0,5.6,2.4,5.6,5.6V314.4z"/>
	<path style="fill:#3F4A4C;" d="M125.6,420.8c0,3.2-2.4,5.6-5.6,5.6H76.8c-3.2,0-5.6-2.4-5.6-5.6v-77.6c0-3.2,2.4-5.6,5.6-5.6H120
		c3.2,0,5.6,2.4,5.6,5.6V420.8z"/>
</g>
<path style="fill:#F74D19;" d="M399.2,440.8c0,16.8-13.6,29.6-29.6,29.6H139.2c-16.8,0-29.6-13.6-29.6-29.6V29.6
	c0-16.8,13.6-29.6,29.6-29.6h230.4c16.8,0,29.6,13.6,29.6,29.6V440.8z"/>
<path style="fill:#FF7A17;" d="M382.4,440.8c0,16.8-13.6,29.6-29.6,29.6H121.6c-16.8,0-29.6-13.6-29.6-29.6V29.6
	C92,12.8,105.6,0,121.6,0H352c16.8,0,29.6,13.6,29.6,29.6v411.2H382.4z"/>
<path style="fill:#EF6A0F;" d="M92,29.6C92,12.8,105.6,0,121.6,0H352c16.8,0,29.6,13.6,29.6,29.6v411.2c0,16.8-13.6,29.6-29.6,29.6"
	/>
<path id="SVGCleanerId_0" style="fill:#9AB2B0;" d="M203.2,354.4h196V29.6c0-16.8-13.6-29.6-29.6-29.6H171.2v322.4
	C171.2,340,185.6,354.4,203.2,354.4z"/>
<path style="fill:#E04C0B;" d="M203.2,368h196V43.2c0-16.8-13.6-29.6-29.6-29.6H171.2V336C171.2,353.6,185.6,368,203.2,368z"/>
<g>
	<path id="SVGCleanerId_0_1_" style="fill:#9AB2B0;" d="M203.2,354.4h196V29.6c0-16.8-13.6-29.6-29.6-29.6H171.2v322.4
		C171.2,340,185.6,354.4,203.2,354.4z"/>
</g>
<path style="fill:#E2610A;" d="M352,13.6H148V336c0,17.6,14.4,32.8,32.8,32.8h201.6V43.2C382.4,27.2,368.8,13.6,352,13.6z"/>
<path style="fill:#B2CCCA;" d="M352,0H148v322.4c0,17.6,14.4,32.8,32.8,32.8h201.6V29.6C382.4,12.8,368.8,0,352,0z"/>
<path style="fill:#5B6666;" d="M327.2,23.2c16,0,29.6,12.8,29.6,29.6v250.4c0,16-12.8,29.6-29.6,29.6H200.8
	c-16,0-29.6-12.8-29.6-29.6V52.8c0-16,12.8-29.6,29.6-29.6H327.2z"/>
<path style="fill:#4F5959;" d="M171.2,52.8v250.4c0,16,12.8,29.6,29.6,29.6h29.6c-16,0-29.6-12.8-29.6-29.6V52.8
	c0-16,12.8-29.6,29.6-29.6h-29.6C184,23.2,171.2,36.8,171.2,52.8z"/>
<g>
	<circle style="fill:#3F4A4C;" cx="264" cy="260" r="14.4"/>
	<circle style="fill:#3F4A4C;" cx="264" cy="95.2" r="14.4"/>
</g>
<path style="fill:#797F7F;" d="M264,148.8c4.8,0,8.8,4,8.8,8.8v39.2c0,4.8-4,8.8-8.8,8.8l0,0c-4.8,0-8.8-4-8.8-8.8v-39.2
	C255.2,152.8,259.2,148.8,264,148.8L264,148.8z"/>
<g>
	<path style="fill:#CE4120;" d="M161.6,433.6c0,4-3.2,6.4-6.4,6.4l0,0c-4,0-6.4-3.2-6.4-6.4v-44c0-4,3.2-6.4,6.4-6.4l0,0
		c4,0,6.4,3.2,6.4,6.4V433.6z"/>
	<path style="fill:#CE4120;" d="M191.2,433.6c0,4-3.2,6.4-6.4,6.4l0,0c-4,0-6.4-3.2-6.4-6.4v-44c0-4,3.2-6.4,6.4-6.4l0,0
		c4,0,6.4,3.2,6.4,6.4V433.6z"/>
	<path style="fill:#CE4120;" d="M220.8,433.6c0,4-3.2,6.4-6.4,6.4l0,0c-4,0-6.4-3.2-6.4-6.4v-44c0-4,3.2-6.4,6.4-6.4l0,0
		c4,0,6.4,3.2,6.4,6.4V433.6z"/>
</g>
</svg>