<?xml version="1.0" encoding="iso-8859-1"?>
<!-- Uploaded to: SVG Repo, www.svgrepo.com, Generator: SVG Repo Mixer Tools -->
<svg height="800px" width="800px" version="1.1" id="Layer_1" xmlns="http://www.w3.org/2000/svg" xmlns:xlink="http://www.w3.org/1999/xlink" 
	 viewBox="0 0 491.368 491.368" xml:space="preserve">
<path style="fill:#536060;" d="M393.684,464c-2.4,0-4,0-6.4-0.8c-14.4-3.2-23.2-18.4-19.2-32l52-206.4c-1.6-95.2-79.2-172-174.4-172
	s-172.8,76.8-175.2,172l52,206.4c4,14.4-4.8,28.8-19.2,32c-14.4,4-28.8-4.8-32-19.2l-52.8-209.6c-0.8-2.4-0.8-4-0.8-6.4
	c0-125.6,102.4-228,228-228s228,102.4,228,228c0,2.4,0,4-0.8,6.4l-52.8,209.6C416.884,456,405.684,464,393.684,464z"/>
<path style="fill:#313A3A;" d="M387.284,463.2c2.4,0.8,4,0.8,6.4,0.8c12,0,22.4-8,25.6-20l51.2-201.6
	c-17.6-108-111.2-191.2-224.8-191.2s-207.2,83.2-224.8,192l51.2,201.6c4,14.4,17.6,23.2,32,19.2c4.8-1.6,8.8-4,12.8-7.2l-45.6-180
	c0-12,1.6-24,4-35.2l-4-16.8c1.6-95.2,79.2-172,174.4-172s172.8,76.8,175.2,172l-4,16.8c2.4,11.2,4,23.2,4,35.2l-45.6,180
	C378.484,459.2,382.484,462.4,387.284,463.2z"/>
<path style="fill:#3493CE;" d="M24.084,408.8c11.2,42.4,55.2,68,99.2,56c44-11.2,44.8-48,33.6-90.4s-29.6-74.4-73.6-63.2
	C40.084,322.4,12.884,366.4,24.084,408.8z"/>
<path style="fill:#2D80C4;" d="M24.084,408.8c11.2,42.4,55.2,68,99.2,56c44-11.2,44.8-48,33.6-90.4"/>
<path style="fill:#FF7A17;" d="M56.084,393.6c16.8,64,65.6,107.2,109.6,96s40-65.6,23.2-130.4c-16.8-64-40-114.4-83.2-102.4
	C61.684,268,40.084,329.6,56.084,393.6z"/>
<path style="fill:#EF6B11;" d="M56.084,393.6c16.8,64,65.6,107.2,109.6,96s40-65.6,23.2-130.4"/>
<path style="fill:#E25405;" d="M114.484,378.4c16.8,64,8,122.4,52,111.2c44-11.2,40-65.6,23.2-130.4c-16.8-64-40-114.4-83.2-102.4
	C61.684,268,97.684,314.4,114.484,378.4z"/>
<path style="fill:#3493CE;" d="M467.284,408.8c-11.2,42.4-55.2,68-99.2,56c-44-11.2-44.8-48-33.6-90.4
	c11.2-42.4,29.6-74.4,73.6-63.2C451.284,322.4,478.484,366.4,467.284,408.8z"/>
<path style="fill:#2D80C4;" d="M467.284,408.8c-11.2,42.4-55.2,68-99.2,56c-44-11.2-44.8-48-33.6-90.4"/>
<path style="fill:#FF7A17;" d="M435.284,393.6c-16.8,64-65.6,107.2-109.6,96s-40-65.6-23.2-130.4c16.8-64,40-114.4,83.2-102.4
	C429.684,268,451.284,329.6,435.284,393.6z"/>
<path style="fill:#EF6B11;" d="M435.284,393.6c-16.8,64-65.6,107.2-109.6,96s-40-65.6-23.2-130.4"/>
<path style="fill:#E25405;" d="M376.884,378.4c-16.8,64-8,122.4-52,111.2c-44-11.2-40-65.6-23.2-130.4c16.8-64,40-114.4,83.2-102.4
	C429.684,268,393.684,314.4,376.884,378.4z"/>
</svg>