<?xml version="1.0" encoding="iso-8859-1"?>
<!-- Uploaded to: SVG Repo, www.svgrepo.com, Generator: SVG Repo Mixer Tools -->
<svg height="800px" width="800px" version="1.1" id="Layer_1" xmlns="http://www.w3.org/2000/svg" xmlns:xlink="http://www.w3.org/1999/xlink" 
	 viewBox="0 0 476 476" xml:space="preserve">
<path style="fill:#FF7A17;" d="M202.4,476V327.2c0-10.4-8.8-19.2-19.2-19.2s-19.2,8.8-19.2,19.2V476L202.4,476L202.4,476z"/>
<path style="fill:#E2610A;" d="M202.4,476V327.2c0-10.4-8.8-19.2-19.2-19.2s-19.2,8.8-19.2,19.2"/>
<path style="fill:#D84B05;" d="M183.2,307.2c-10.4,0-19.2,8.8-19.2,19.2v44.8c5.6,4.8,12,8,20,8c7.2,0,13.6-2.4,19.2-7.2v-45.6
	C202.4,316,193.6,307.2,183.2,307.2z"/>
<path style="fill:#293233;" d="M212.8,322.4c0,16-12.8,29.6-29.6,29.6l0,0c-16,0-29.6-12.8-29.6-29.6V168.8
	c0-16,12.8-29.6,29.6-29.6l0,0c16,0,48.8-24.8,48.8-8.8L212.8,322.4z"/>
<path style="fill:#080C0C;" d="M212.8,322.4c0,16-12.8,29.6-29.6,29.6l0,0c-16,0-12-12.8-12-29.6L154.4,168
	c0-16,12.8-29.6,29.6-29.6l0,0c16,0,48.8-24.8,48.8-8.8L212.8,322.4z"/>
<path style="fill:#FF7A17;" d="M74.4,108.8c0,33.6-7.2,60-16,60s-16-27.2-16-60c0-33.6,7.2-60,16-60C67.2,48,74.4,75.2,74.4,108.8z"
	/>
<path style="fill:#E2610A;" d="M74.4,108.8c0,33.6-7.2,60-16,60s-16-27.2-16-60"/>
<path style="fill:#2298D3;" d="M157.6,161.6c0,29.6-24,54.4-53.6,54.4l0,0c-29.6,0-54.4-24-54.4-54.4V55.2c0-29.6,24-54.4,54.4-54.4
	l0,0c29.6,0,53.6,24,53.6,54.4V161.6z"/>
<path style="fill:#1077B5;" d="M157.6,161.6c0,29.6-24,54.4-53.6,54.4l0,0c-29.6,0-54.4-24-54.4-54.4V55.2c0-29.6,24-40.8,54.4-40.8
	l0,0c29.6,0.8,53.6,11.2,53.6,40.8V161.6z"/>
<path style="fill:#0861A3;" d="M157.6,109.6v52c0,29.6-24,54.4-53.6,54.4l0,0c-29.6,0-54.4-24-54.4-54.4v-52"/>
<path style="fill:#035384;" d="M96,109.6c0,54.4,10.4,99.2,23.2,103.2c22.4-7.2,38.4-27.2,38.4-51.2V55.2c0-20.8-12-38.4-29.6-48
	c-3.2-0.8-5.6-1.6-7.2-1.6C107.2,6.4,96,52,96,109.6z"/>
<path style="fill:#074768;" d="M119.2,212.8L119.2,212.8c10.4-3.2,19.2-9.6,26.4-17.6c0.8-0.8,0.8-1.6,1.6-1.6
	c0.8-1.6,1.6-3.2,3.2-4.8c0.8-1.6,1.6-2.4,2.4-4s1.6-2.4,1.6-4c0.8-1.6,1.6-4,1.6-5.6c0-0.8,0.8-2.4,0.8-3.2
	c0.8-3.2,0.8-6.4,0.8-9.6v-52.8H96C96,164,106.4,208.8,119.2,212.8z"/>
<g>
	<path style="fill:#0690C6;" d="M119.2,212.8L119.2,212.8L119.2,212.8z"/>
	<path style="fill:#0690C6;" d="M156,44.8c-3.2-16-13.6-29.6-28-37.6c-3.2-0.8-5.6-1.6-7.2-1.6c-4,0-7.2,3.2-10.4,9.6
		C133.6,16.8,152,25.6,156,44.8z"/>
	<path style="fill:#0690C6;" d="M156.8,45.6c0,3.2,0.8,6.4,0.8,9.6C157.6,52,156.8,48.8,156.8,45.6z"/>
	<path style="fill:#0690C6;" d="M145.6,195.2c0.8-0.8,0.8-1.6,1.6-1.6C146.4,193.6,145.6,194.4,145.6,195.2z"/>
	<path style="fill:#0690C6;" d="M156,174.4c-0.8,1.6-0.8,4-1.6,5.6C154.4,178.4,155.2,176.8,156,174.4z"/>
	<path style="fill:#0690C6;" d="M152,184.8c-0.8,1.6-1.6,2.4-2.4,4C150.4,187.2,151.2,185.6,152,184.8z"/>
	<path style="fill:#0690C6;" d="M157.6,161.6c0,3.2,0,6.4-0.8,9.6C156.8,168,157.6,164.8,157.6,161.6z"/>
</g>
<path style="fill:#4D6060;" d="M240.8,109.6c0,56.8-92,103.2-105.6,103.2s-24.8-46.4-24.8-103.2S121.6,6.4,135.2,6.4
	S240.8,52,240.8,109.6z"/>
<path style="fill:#293233;" d="M240.8,109.6c0,56.8-92,103.2-105.6,103.2s-24.8-46.4-24.8-103.2s11.2-90.4,24.8-90.4
	S240.8,52,240.8,109.6z"/>
<path style="fill:#080C0C;" d="M240.8,109.6c0,56.8-92,103.2-105.6,103.2s-24.8-46.4-24.8-103.2"/>
<path style="fill:#6D8483;" d="M137.6,109.6c0-44.8,6.4-82.4,16-96.8c-8.8-4-16-6.4-19.2-6.4c-13.6,0-24.8,46.4-24.8,103.2
	s11.2,103.2,24.8,103.2c3.2,0,10.4-2.4,19.2-6.4C144.8,192,137.6,154.4,137.6,109.6z"/>
<path style="fill:#4D5F60;" d="M141.6,211.2C141.6,211.2,142.4,211.2,141.6,211.2c4-1.6,8-3.2,12-4.8c-9.6-14.4-16-52.8-16-96.8
	c0-36.8,4.8-68.8,11.2-86.4c-6.4-2.4-12-3.2-14.4-3.2c-13.6,0-24.8,32.8-24.8,90.4c0,56.8,11.2,103.2,24.8,103.2
	c0.8,0,1.6,0,3.2-0.8C139.2,212,140,212,141.6,211.2z"/>
<path style="fill:#3D4C4C;" d="M141.6,211.2C141.6,211.2,142.4,211.2,141.6,211.2c4-1.6,8-3.2,12-4.8c-9.6-14.4-16-52.8-16-96.8
	h-27.2c0,56.8,11.2,103.2,24.8,103.2c0.8,0,1.6,0,3.2-0.8C139.2,212,140,212,141.6,211.2z"/>
<g>
	<circle style="fill:#E2610A;" cx="175.2" cy="109.6" r="6.4"/>
	<polygon style="fill:#E2610A;" points="154.4,277.6 217.6,277.6 219.2,261.6 154.4,261.6 	"/>
</g>
<polygon style="fill:#D84B05;" points="217.6,272 219.2,261.6 164.8,261.6 166.4,277.6 217.6,277.6 "/>
<path style="fill:#FF7A17;" d="M364,476V327.2c0-10.4-8.8-19.2-19.2-19.2c-10.4,0-19.2,8.8-19.2,19.2V476L364,476L364,476z"/>
<path style="fill:#E2610A;" d="M364,476V327.2c0-10.4-8.8-19.2-19.2-19.2c-10.4,0-19.2,8.8-19.2,19.2"/>
<path style="fill:#D84B05;" d="M344.8,307.2c-10.4,0-19.2,8.8-19.2,19.2v44.8c5.6,4.8,12,8,20,8c7.2,0,13.6-2.4,19.2-7.2v-45.6
	C364,316,355.2,307.2,344.8,307.2z"/>
<path style="fill:#293233;" d="M345.6,152L345.6,152c-0.8,0-0.8,0-1.6,0c-0.8,0-0.8,0-1.6,0l0,0c-16.8-0.8-47.2-24.8-47.2-8.8
	L314.4,336c0,16,12.8,29.6,29.6,29.6l0,0l0,0c16,0,29.6-12.8,29.6-29.6l19.2-192.8C392.8,127.2,362.4,151.2,345.6,152z"/>
<path style="fill:#080C0C;" d="M433.6,108.8c0,54.4-40,121.6-88.8,121.6S256,164,256,108.8c0-54.4,40-99.2,88.8-99.2
	C393.6,9.6,433.6,53.6,433.6,108.8z"/>
<path style="fill:#0861A3;" d="M424,108.8c0,44-35.2,108.8-79.2,108.8s-79.2-64.8-79.2-108.8s35.2-79.2,79.2-79.2
	C388,28.8,424,64.8,424,108.8z"/>
<path style="fill:#2298D3;" d="M265.6,108.8c0-44,35.2-108.8,79.2-108.8S424,64.8,424,108.8"/>
<path style="fill:#1077B5;" d="M265.6,108.8c0-44,35.2-72,79.2-72s79.2,28,79.2,72"/>
<path style="fill:#035384;" d="M319.2,138.4l35.2,77.6c20-4.8,38.4-22.4,50.4-44.8l-27.2-60L319.2,138.4z"/>
<path style="fill:#FF7A17;" d="M380,109.6c0,19.2-16,50.4-35.2,50.4s-35.2-30.4-35.2-50.4c0-19.2,16-50.4,35.2-50.4
	C364,59.2,380,90.4,380,109.6z"/>
<g>
	<path style="fill:#E2610A;" d="M380,109.6c0,19.2-16,50.4-35.2,50.4s-35.2-30.4-35.2-50.4"/>
	<polygon style="fill:#E2610A;" points="309.6,277.6 380,277.6 381.6,261.6 308,261.6 	"/>
</g>
</svg>